<?xml version="1.0" encoding="utf-8"?>
<!-- Generator: Adobe Illustrator 26.4.1, SVG Export Plug-In . SVG Version: 6.00 Build 0)  -->
<svg version="1.1" id="Layer_1" xmlns="http://www.w3.org/2000/svg" xmlns:xlink="http://www.w3.org/1999/xlink" x="0px" y="0px"
	 viewBox="0 0 200 200" style="enable-background:new 0 0 200 200;" xml:space="preserve">
<style type="text/css">
	.st0{fill-rule:evenodd;clip-rule:evenodd;fill:#0A0A0A;}
	.st1{fill-rule:evenodd;clip-rule:evenodd;fill:#EAEAEA;}
</style>
<polyline class="st0" points="147.6,94.4 166.5,105.3 166.5,137.8 100.3,176 81.4,165.1 147.6,126.9 "/>
<polyline class="st0" points="147.3,51 166.2,61.9 166.2,83.6 147.3,72.7 "/>
<polyline class="st0" points="34.2,61.8 100.3,23.7 119.2,34.6 53.1,72.7 53.1,94.4 53.1,94.4 128.7,50.8 128.7,72.5 53.1,116.1 
	53.1,127 62.5,132.4 128.7,94.2 128.7,115.9 62.5,154.2 34.2,137.9 "/>
<path class="st1" d="M119.1,12.9l-9.4-5.4L100.3,2l-9.4,5.4l-9.5,5.5L72,18.3l-9.5,5.5l-9.4,5.4l-9.5,5.5L34.4,40L25,45.5l-9.4,5.4
	v10.9v10.8v10.9v10.8v10.9V116v11v10.8v10.9l9.4,5.4l9.5,5.5l9.4,5.4l9.5,5.5l9.4,5.4l9.5,5.5l9.4,5.4l9.5,5.5l9.4,5.4l9.5-5.5
	l9.4-5.4l9.5-5.5l9.4-5.4l9.5-5.5l9.4-5.4l9.5-5.5l9.4-5.4l9.5-5.5v-10.8v-10.9v-10.8v-10.9V94.4V83.5V72.7V61.8V51l-9.5-5.5
	l-9.4-5.4l-9.5-5.5l-9.4-5.4l-9.5-5.5l-9.4-5.4L119.1,12.9L119.1,12.9z M90.9,159.6l9.4-5.4l9.5-5.5l9.4-5.4l9.5-5.5l9.4-5.4
	l9.5-5.5v-10.8V94.4l9.4,5.4l9.5,5.5v10.8V127v10.8l-9.5,5.5l-9.4,5.4l-9.5,5.5l-9.4,5.4l-9.5,5.5l-9.4,5.4l-9.5,5.5l-9.4-5.4
	l-9.5-5.5L90.9,159.6L90.9,159.6z M81.4,143.3l-9.4,5.4l-9.5,5.5l-9.4-5.4l-9.5-5.5l-9.4-5.4V127v-10.8v-10.9V94.4V83.5V72.7V61.8
	l9.4-5.4l9.5-5.5l9.4-5.4L72,40l9.4-5.4l9.5-5.5l9.4-5.4l9.5,5.5l9.4,5.4l-9.4,5.4l-9.5,5.5l-9.4,5.4l-9.5,5.5L72,61.8l-9.5,5.5
	l-9.4,5.4v10.9v10.8l9.4-5.4l9.5-5.5l9.4-5.4l9.5-5.5l9.4-5.4l9.5-5.5l9.4-5.4l9.5-5.5v10.9v10.8l-9.5,5.5l-9.4,5.4l-9.5,5.5
	l-9.4,5.4l-9.5,5.5l-9.4,5.4l-9.5,5.5l-9.4,5.4V127l9.4,5.4l9.5-5.5l9.4-5.4l9.5-5.5l9.4-5.4l9.5-5.5l9.4-5.4l9.5-5.5
	c0,23.4,0,4.6,0,21.7l-9.5,5.5l-9.4,5.4l-9.5,5.5l-9.4,5.4L81.4,143.3L81.4,143.3z M166.2,83.6l-9.5-5.5l-9.4-5.4V61.8V51l9.4,5.4
	l9.5,5.5v10.8V83.6z"/>
</svg>
